<?xml version="1.0" encoding="UTF-8" standalone="no"?>
<!-- Created with Inkscape (http://www.inkscape.org/) -->

<svg
   xmlns:dc="http://purl.org/dc/elements/1.1/"
   xmlns:cc="http://creativecommons.org/ns#"
   xmlns:rdf="http://www.w3.org/1999/02/22-rdf-syntax-ns#"
   xmlns:svg="http://www.w3.org/2000/svg"
   xmlns="http://www.w3.org/2000/svg"
   xmlns:sodipodi="http://sodipodi.sourceforge.net/DTD/sodipodi-0.dtd"
   xmlns:inkscape="http://www.inkscape.org/namespaces/inkscape"
   width="106"
   height="106"
   id="svg2"
   version="1.1"
   inkscape:version="0.48.2 r9819"
   sodipodi:docname="icon.svg"
   inkscape:export-filename="/Users/rodjatrappe/Projects/SimpleStorage/component/icons/simple-storage_512x512.png"
   inkscape:export-xdpi="434.72"
   inkscape:export-ydpi="434.72">
  <defs
     id="defs4" />
  <sodipodi:namedview
     id="base"
     pagecolor="#ffffff"
     bordercolor="#666666"
     borderopacity="1.0"
     inkscape:pageopacity="0.0"
     inkscape:pageshadow="2"
     inkscape:zoom="2.8"
     inkscape:cx="-17.784506"
     inkscape:cy="76.32228"
     inkscape:document-units="px"
     inkscape:current-layer="layer1"
     showgrid="false"
     fit-margin-top="5"
     fit-margin-left="5"
     fit-margin-right="5"
     fit-margin-bottom="5"
     inkscape:window-width="1184"
     inkscape:window-height="858"
     inkscape:window-x="0"
     inkscape:window-y="0"
     inkscape:window-maximized="0" />
  <metadata
     id="metadata7">
    <rdf:RDF>
      <cc:Work
         rdf:about="">
        <dc:format>image/svg+xml</dc:format>
        <dc:type
           rdf:resource="http://purl.org/dc/dcmitype/StillImage" />
      </cc:Work>
    </rdf:RDF>
  </metadata>
  <g
     inkscape:label="Layer 1"
     inkscape:groupmode="layer"
     id="layer1"
     transform="translate(-465.50178,-241.35184)">
    <path
       style="fill:#070000;fill-opacity:1"
       d="m 558.07251,343.49057 c -11.16426,0.16285 -40.2865,0.75334 -48.81971,0.98984 -23.65033,0.65548 -36.76969,0.78763 -36.98869,0.37251 -0.39965,-0.75755 -0.43164,-10.0169 -0.0847,-24.53713 0.34045,-14.24918 0.57495,-27.45451 0.68792,-38.73538 0.24025,-23.99439 -1.4543,-34.4985 -0.46649,-34.9201 0.62164,-0.26533 10.57329,-0.61893 19.3979,-0.78582 8.82465,-0.16687 18.89309,-0.39415 22.37435,-0.50505 6.26766,-0.19968 19.7879,-0.5351 41.64582,-1.03322 6.21812,-0.1417 11.49799,-0.21411 11.73305,-0.16091 0.66874,0.15137 0.72574,6.93522 0.22445,26.70344 -0.25504,10.05769 -0.40033,18.40686 -0.32287,18.5537 0.0774,0.14681 -0.0183,7.67113 -0.21299,16.72066 -0.19459,9.04956 -0.42054,21.01284 -0.50208,26.5851 -0.0814,5.57226 -0.46806,10.24781 -0.8589,10.39009 -0.39085,0.14225 -3.90401,0.30533 -7.80702,0.36227 z m 4.97271,-10.191 c 0.16513,-3.03608 0.31913,-9.92158 0.34223,-15.30109 0.0232,-5.37949 0.16943,-15.32695 0.3251,-22.10548 0.1557,-6.7785 0.31976,-16.18439 0.36458,-20.90195 0.0448,-4.71756 0.17644,-12.61011 0.29256,-17.53899 0.11611,-4.92888 -0.29057,-9.23844 -0.90368,-9.57679 -1.10737,-0.61111 -2.73672,-0.61566 -24.40858,-0.0681 -6.21011,0.15689 -15.7449,0.38258 -21.18842,0.50149 -5.44357,0.11891 -15.59789,0.3902 -22.56519,0.60284 -6.96731,0.21265 -13.88682,0.32966 -15.37675,0.26004 -1.48989,-0.0696 -2.79901,0.0873 -2.90911,0.34846 -0.18514,0.4393 -0.4295,13.12884 -0.56445,29.30934 -0.0886,10.63022 -0.34458,26.83786 -0.57237,36.2453 -0.41955,17.32617 -0.36447,25.09971 0.18522,26.14163 0.49326,0.93501 8.55405,0.99268 31.58363,0.22598 8.02682,-0.26721 30.22054,-0.73439 43.14204,-0.90813 5.46749,-0.0735 10.3936,-0.48934 10.94692,-0.92404 0.5533,-0.43472 1.14109,-3.27447 1.30626,-6.31057 z m -5.999,2.21404 c -4.40651,2.67825 -10.01841,0.95196 -18.5574,1.16749 -8.53897,0.21558 -19.33751,0.48567 -23.99677,0.60022 -28.08401,0.69037 -33.90565,0.64743 -34.3502,-0.1952 -0.27403,-0.51946 -0.42912,-4.14142 -0.34462,-10.76208 0.0845,-6.62067 0.17788,-13.97003 0.20757,-16.33191 0.18738,-14.91565 -2.30335,-14.28348 3.88158,-14.40754 2.49057,-0.05 10.24708,-0.23028 17.23666,-0.40069 6.98959,-0.17044 17.80473,-0.40906 24.03365,-0.5303 6.22893,-0.12123 16.88705,-0.35252 23.68474,-0.51393 6.79767,-0.16143 10.37611,0.16064 10.66895,0.71574 0.29285,0.55508 0.40189,4.2307 0.24235,8.16804 -0.15956,3.93734 -0.33155,10.74609 -0.38221,15.13056 2.34415,11.17423 -0.9591,15.05891 -2.3243,17.3596 z m -22.14438,-14.13063 c 0.0539,-4.77054 -0.39961,-6.45935 -1.81196,-6.74678 -2.60063,-0.52928 -26.19121,0.0139 -27.65026,0.63659 -1.27205,0.54293 -1.57103,10.86913 -0.38002,13.12662 0.77021,1.45995 26.09585,1.64396 28.3956,0.20638 0.75609,-0.47265 1.40707,-3.72288 1.44664,-7.22276 z m -10.22327,6.251 c -21.05944,0.36196 -19.4967,0.66006 -18.48701,-3.52669 0.59183,-2.45401 1.14181,-2.56545 13.56703,-2.74862 7.12262,-0.10501 13.04054,-0.0197 13.15095,0.18956 0.51106,0.96872 -0.27416,5.30413 -1.01804,5.62077 -0.45916,0.19544 -3.70498,0.40468 -7.21293,0.46498 z m 12.25922,-37.26772 c -6.18274,0.20876 -16.33816,0.47798 -22.56757,0.59827 -6.22943,0.12029 -16.88407,0.32886 -23.677,0.46347 -13.35659,0.26469 -10.87135,0.42694 -10.3938,-7.80263 0.29132,-5.01938 0.55366,-18.87791 0.43027,-24.14859 -0.20908,-8.93118 -3.51972,-6.33328 23.93422,-6.86892 15.71348,-0.3066 29.95155,-0.7146 46.14359,-1.1988 7.54234,-0.22553 8.86563,0.0789 9.17035,2.11025 0.71634,-5.1221 -0.62732,21.66643 0.0954,35.35092 -2.90675,2.96389 -11.73041,1.26042 -23.13542,1.49603 z m -1.22588,-15.11868 c 0.58252,-8.00966 1.4793,-7.72214 -21.9037,-7.02274 -4.01594,0.12012 -7.58734,0.3403 -7.93644,0.4893 -0.75519,0.32232 -1.26299,8.56453 -0.74878,12.15313 0.32762,2.28237 1.7723,2.50456 14.97515,2.30152 10.09704,-0.15532 14.71526,-0.69199 14.94354,-1.73657 0.18171,-0.83149 0.48332,-3.61458 0.67023,-6.18464 z m -17.13909,6.24863 c -6.10795,-0.0226 -11.2965,-0.40268 -11.53012,-0.84551 -0.23363,-0.44284 -0.16531,-1.83839 0.15166,-3.1012 0.52858,-2.10536 1.51563,-2.31663 11.8871,-2.54423 15.32917,-0.3364 15.10954,-0.37388 14.88054,2.5401 -0.26674,3.39368 -2.61775,3.99725 -15.38918,3.95084 z"
       id="path3170"
       inkscape:connector-curvature="0"
       sodipodi:nodetypes="csssscssscscsccccccsssssssccsscssccccsscsssssscscccssccccssscsscsssssscccssccssscccscc" />
  </g>
</svg>
